<svg width="67" height="37" viewBox="0 0 67 37" fill="none" xmlns="http://www.w3.org/2000/svg">
<g id="Eye 2" clip-path="url(#clip0_4_604)">
<g id="Group">
<path id="Vector" d="M63.996 18.5C63.996 18.5 51.175 35 33.496 35C15.817 35 2.99597 18.5 2.99597 18.5C2.99597 18.5 15.817 2 33.496 2C51.175 2 63.996 18.5 63.996 18.5Z" stroke="black" stroke-width="3.5" stroke-miterlimit="10"/>
<path id="Vector_2" d="M33.496 30.995C40.3995 30.995 45.996 25.3986 45.996 18.495C45.996 11.5914 40.3995 5.995 33.496 5.995C26.5924 5.995 20.996 11.5914 20.996 18.495C20.996 25.3986 26.5924 30.995 33.496 30.995Z" stroke="black" stroke-width="3.5" stroke-miterlimit="10"/>
<path id="Vector_3" d="M35.504 22.21C34.6582 22.7377 33.6611 22.9696 32.6693 22.8693C31.6774 22.769 30.747 22.3423 30.024 21.656C29.3009 20.9697 28.8262 20.0627 28.6744 19.0774C28.5226 18.0922 28.7023 17.0844 29.1852 16.2123C29.6681 15.3402 30.4269 14.6531 31.3426 14.2589C32.2582 13.8647 33.2789 13.7857 34.2442 14.0343C35.2096 14.283 36.0651 14.8451 36.6765 15.6325C37.2878 16.42 37.6204 17.3881 37.6219 18.385V18.512" stroke="black" stroke-width="3.5" stroke-miterlimit="10" stroke-linecap="round"/>
</g>
</g>
<defs>
<clipPath id="clip0_4_604">
<rect width="65.432" height="36.5" fill="white" transform="translate(0.780029 0.25)"/>
</clipPath>
</defs>
</svg>
