<svg width="27" height="27" viewBox="0 0 27 27" fill="none" xmlns="http://www.w3.org/2000/svg">
<g id="Mail Icon 2" clip-path="url(#clip0_4_822)">
<g id="Group">
<path id="Vector" d="M21.8 4H4.19995C3.61158 4.00896 3.05077 4.25083 2.64044 4.67259C2.23011 5.09436 2.00374 5.66161 2.01095 6.25L1.99995 19.75C1.99514 20.3396 2.22379 20.9071 2.63598 21.3287C3.04818 21.7502 3.61042 21.9916 4.19995 22H21.8C22.3895 21.9916 22.9517 21.7502 23.3639 21.3287C23.7761 20.9071 24.0048 20.3396 24 19.75V6.25C24.0048 5.66043 23.7761 5.0929 23.3639 4.67134C22.9517 4.24978 22.3895 4.00843 21.8 4ZM21.8 19.75H4.19995V8.5L13 14.125L21.8 8.5V19.75ZM13 11.875L4.19995 6.25H21.8L13 11.875Z" fill="#08A6E4"/>
</g>
</g>
<defs>
<clipPath id="clip0_4_822">
<rect width="27" height="27" fill="white"/>
</clipPath>
</defs>
</svg>
